<svg width="13" height="13" viewBox="0 0 13 13" fill="none" xmlns="http://www.w3.org/2000/svg">
<path d="M12.7244 7.57424V12.1861H10.0506V7.88299C10.0506 6.80174 9.66375 6.06424 8.69625 6.06424C7.9575 6.06424 7.5175 6.56174 7.32438 7.04236C7.25375 7.21424 7.23563 7.45361 7.23563 7.69424V12.1861H4.56063C4.56063 12.1861 4.59687 4.89861 4.56063 4.14299H7.23563V5.28299L7.21813 5.30924H7.23563V5.28299C7.59062 4.73611 8.225 3.95424 9.64563 3.95424C11.405 3.95424 12.7244 5.10424 12.7244 7.57424ZM1.76312 0.266113C0.84875 0.266113 0.25 0.866113 0.25 1.65549C0.25 2.42736 0.83125 3.04549 1.72812 3.04549H1.74562C2.67875 3.04549 3.25813 2.42736 3.25813 1.65549C3.24188 0.866113 2.67937 0.266113 1.76375 0.266113H1.76312ZM0.40875 12.1861H3.0825V4.14299H0.40875V12.1861Z" fill="white" fill-opacity="0.6"/>
</svg>
