<?xml version="1.0" encoding="utf-8"?><svg viewBox="0 0 16 14" xmlns="http://www.w3.org/2000/svg" xmlns:xlink="http://www.w3.org/1999/xlink"><style>:root>svg{display:none}:root>svg:target{display:block}</style><svg fill="none" viewBox="0 0 8 14" id="facebook" xmlns="http://www.w3.org/2000/svg"><path d="M6.08 2.547h1.253V.427A17.407 17.407 0 005.507.334c-1.814 0-3.054 1.106-3.054 3.133v1.747H.407v2.373h2.046v6.08h2.454v-6.08h2.04l.306-2.373H4.907V3.7c0-.7.186-1.153 1.173-1.153z" fill="#fff" fill-opacity=".6"/></svg><svg fill="none" viewBox="0 0 13 13" id="in" xmlns="http://www.w3.org/2000/svg"><path d="M12.724 7.574v4.612h-2.673V7.883c0-1.081-.387-1.819-1.355-1.819-.739 0-1.178.498-1.372.978-.07.172-.088.412-.088.652v4.492H4.56s.036-7.287 0-8.043h2.675v1.14l-.018.026h.018v-.026c.355-.547.989-1.329 2.41-1.329 1.759 0 3.078 1.15 3.078 3.62zM1.764.266C.848.266.25.866.25 1.656c0 .771.581 1.39 1.478 1.39h.018c.933 0 1.512-.619 1.512-1.39C3.242.865 2.68.265 1.764.265zM.408 12.186h2.674V4.143H.409v8.043z" fill="#fff" fill-opacity=".6"/></svg><svg fill="none" viewBox="0 0 16 14" id="twitter" xmlns="http://www.w3.org/2000/svg"><path d="M15.5 2.35a6.133 6.133 0 01-1.768.483 3.088 3.088 0 001.353-1.702 6.201 6.201 0 01-1.953.747 3.077 3.077 0 00-5.244 2.805 8.723 8.723 0 01-6.343-3.215 3.053 3.053 0 00-.418 1.548c0 1.067.542 2.009 1.37 2.56a3.06 3.06 0 01-1.394-.385v.039a3.076 3.076 0 002.468 3.018 3.064 3.064 0 01-1.389.053 3.083 3.083 0 002.874 2.139A6.172 6.172 0 01.5 11.712a8.703 8.703 0 004.717 1.384c5.661 0 8.757-4.69 8.757-8.757 0-.132-.005-.266-.01-.398A6.304 6.304 0 0015.5 2.349z" fill="#fff" fill-opacity=".6"/></svg></svg>